<svg width="229" height="159" viewBox="0 0 229 159" fill="none" xmlns="http://www.w3.org/2000/svg">
<path d="M45.6096 59.8985C45.9066 59.3759 46.192 58.8947 46.4655 58.4599C46.7282 58.0405 47.0393 57.5705 47.3986 57.0549C47.7472 56.5495 48.0735 56.0955 48.3773 55.693C48.6812 55.2904 49.0385 54.8426 49.4388 54.3492C51.1093 52.3305 52.93 50.5196 54.8744 48.926C56.8826 47.2875 59.0091 45.8765 61.2225 44.6974C63.4887 43.4938 65.8572 42.5278 68.2917 41.793C70.7471 41.0589 73.2733 40.5665 75.8287 40.32L75.8391 40.3203C76.759 40.228 77.5542 39.7724 78.0949 39.1164C78.641 38.4554 78.9327 37.5887 78.8456 36.669L78.8459 36.6586C78.7537 35.7336 78.3034 34.9385 77.6423 34.3924C76.9863 33.8517 76.1145 33.5599 75.1948 33.647L75.1896 33.6468C72.2161 33.933 69.2651 34.5168 66.3838 35.3789C63.5234 36.2416 60.7381 37.3775 58.0746 38.7985L58.0694 38.7983C55.4536 40.1947 52.95 41.8444 50.6209 43.7548C48.3349 45.6195 46.2082 47.7339 44.2673 50.0831C43.8835 50.5458 43.4771 51.0651 43.0432 51.6357C42.6145 52.2065 42.2285 52.7421 41.8907 53.2322C41.553 53.7223 41.1927 54.2691 40.815 54.8778C40.4375 55.4762 40.0976 56.0392 39.8004 56.567L39.7951 56.572C39.3387 57.3712 39.2489 58.2804 39.4742 59.1104C39.6996 59.9353 40.235 60.6756 41.029 61.1318L41.0391 61.1425C41.8383 61.5989 42.7527 61.6888 43.5775 61.4634C44.4023 61.238 45.1478 60.7028 45.6043 59.9036L45.6096 59.8985Z" fill="#6AFFE4"/>
<path d="M74.9165 70.4468C73.7993 71.0386 72.7744 71.8573 71.9254 72.8896L71.9202 72.8895C71.066 73.9217 70.4581 75.0811 70.0883 76.2945C69.7067 77.5545 69.5789 78.8638 69.7021 80.1441C69.8304 81.4297 70.1991 82.6913 70.8157 83.8509C71.4075 84.9681 72.2263 85.9878 73.2585 86.842C74.2909 87.691 75.4503 88.2989 76.6637 88.6687C77.9236 89.0555 79.233 89.1781 80.5133 89.0549C81.799 88.9266 83.0658 88.5581 84.2201 87.9413C85.3373 87.3495 86.3623 86.5308 87.2113 85.4985C88.0602 84.4661 88.6681 83.3067 89.0378 82.0985C89.4191 80.8489 89.547 79.5344 89.4239 78.2489L89.4241 78.2437C89.3361 77.3553 89.133 76.479 88.809 75.6408C88.6108 75.1242 88.3653 74.6219 88.0829 74.134L99.7674 59.9617C101.788 62.0804 103.416 64.4479 104.643 66.9701C106.111 69.9841 107.009 73.226 107.333 76.5236C107.677 80.1449 107.322 83.8338 106.242 87.3656C105.208 90.758 103.495 94.0155 101.083 96.9395C98.6772 99.8636 95.805 102.164 92.6704 103.831C89.4088 105.563 85.8549 106.613 82.2334 106.963C78.612 107.313 74.923 106.958 71.3965 105.878C67.999 104.839 64.7415 103.126 61.8226 100.72C58.8985 98.3133 56.598 95.4411 54.9306 92.3065C53.1941 89.0448 52.1437 85.4909 51.7935 81.8694C51.4486 78.2481 51.8039 74.5592 52.8787 71.0325C53.9183 67.635 55.6311 64.3775 58.0374 61.4534C59.2322 60.0093 60.5319 58.7143 61.9261 57.5732C63.3576 56.4019 64.8729 55.3895 66.456 54.5511C68.0658 53.6926 69.759 53.0034 71.4994 52.4823C73.2397 51.9613 75.0479 51.6089 76.8873 51.4347L76.8874 51.4295C77.8071 51.3424 78.6076 50.887 79.1535 50.2312C79.6943 49.57 79.986 48.7033 79.8991 47.7784L79.9044 47.7734L79.8992 47.7732C79.8123 46.8483 79.3567 46.0531 78.6956 45.507C78.0345 44.9662 77.1678 44.6745 76.2481 44.7616L76.2431 44.7562C74.0065 44.9706 71.7787 45.4146 69.5861 46.0733C67.4199 46.7223 65.3149 47.5868 63.3028 48.6573L63.2975 48.6623C61.3171 49.7181 59.4248 50.9641 57.6621 52.4068C55.9368 53.8194 54.3259 55.4125 52.8607 57.1872C49.8867 60.7977 47.7648 64.8402 46.4764 69.064C45.1309 73.4528 44.6865 78.0301 45.1204 82.5086C45.5541 86.9923 46.8604 91.398 49.0161 95.4539C51.0879 99.3509 53.9462 102.912 57.5566 105.891C61.1671 108.865 65.2044 110.987 69.428 112.28C73.8168 113.626 78.3942 114.065 82.8778 113.637C87.3615 113.203 91.762 111.896 95.8179 109.741C99.715 107.669 103.281 104.811 106.255 101.2C109.229 97.5898 111.356 93.5526 112.644 89.3289C113.99 84.9401 114.434 80.3628 114.001 75.879C113.598 71.7402 112.459 67.6782 110.602 63.897C108.966 60.5861 106.782 57.4882 104.055 54.7595L128.021 25.6866L127.876 25.4341L132.437 19.7324C131.699 19.0774 130.946 18.4333 130.178 17.8006C129.466 17.2113 128.582 16.966 127.725 17.0498C126.868 17.1284 126.049 17.5363 125.459 18.2534L82.9114 69.868C82.3804 69.675 81.8428 69.5338 81.2933 69.4392C80.4121 69.2826 79.5117 69.2504 78.6234 69.3332L78.6182 69.3331C77.3379 69.4563 76.0761 69.8302 74.9165 70.4468Z" fill="#6AFFE4"/>
<path d="M156.359 100.076C156.139 100.885 155.906 101.692 155.66 102.497C152.697 112.204 147.812 121.494 140.962 129.809C134.111 138.118 125.921 144.683 116.957 149.443C107.643 154.396 97.5124 157.401 87.1918 158.39C76.876 159.389 66.3549 158.371 56.2656 155.286C46.5584 152.317 37.2627 147.438 28.9588 140.587C20.6444 133.737 14.0844 125.547 9.31923 116.583C4.36652 107.269 1.36116 97.1329 0.367276 86.8173C-0.626452 76.4965 0.391924 65.9754 3.47627 55.8913C6.44008 46.1788 11.3244 36.8884 18.175 28.5793C21.549 24.4857 25.2543 20.8137 29.223 17.5664C33.2878 14.2438 37.631 11.3672 42.1793 8.95016C44.6204 7.64762 47.1093 6.4924 49.6306 5.46842C52.1097 4.46402 54.6265 3.59102 57.1762 2.83884C57.1762 2.83884 63.5462 1.3351 64.654 1.05813C66.0642 0.705592 66.8176 0.599621 67.154 0.558133L70.154 0.261784L73.0008 0.0610755C86.9159 -0.548895 113.252 3.40232 123.226 12.262C123.921 12.8768 124.297 13.7166 124.345 14.5673C124.397 15.4235 124.121 16.2958 123.506 16.9913C122.892 17.6867 122.052 18.0628 121.201 18.1103C120.345 18.1628 119.473 17.8866 118.782 17.2719L118.777 17.2718C109.849 9.33961 84.894 6.07066 72.3508 6.80506C71.813 6.84107 71.2961 6.87771 70.7999 6.91496C70.2828 6.9568 69.7706 7.00921 69.2688 7.06192C65.0981 7.65615 60.9793 8.60626 56.954 9.91349C52.9655 11.2114 49.0708 12.856 45.322 14.8489C41.1814 17.0489 37.21 19.6865 33.4763 22.7428C29.8493 25.7137 26.4502 29.0823 23.3412 32.8503C17.0583 40.4731 12.5881 48.9837 9.86801 57.8647C7.04931 67.0813 6.12527 76.7143 7.03522 86.178C7.94502 95.647 10.6947 104.926 15.2181 113.435C19.5789 121.637 25.5915 129.138 33.2144 135.416C40.8319 141.698 49.3424 146.174 58.2235 148.889C67.4454 151.708 77.0783 152.632 86.542 151.722C96.0058 150.812 105.285 148.062 113.799 143.539C121.996 139.178 129.497 133.165 135.78 125.542C142.063 117.92 146.533 109.414 149.253 100.533C149.779 98.8111 150.24 97.0745 150.634 95.3273L150.754 96.391L156.359 100.076Z" fill="#6AFFE4"/>
<path d="M137.028 101.428C136.423 102.989 135.769 104.501 135.068 105.96C134.358 107.424 133.59 108.865 132.766 110.279C131.959 111.651 131.074 113.032 130.11 114.404C129.174 115.742 128.17 117.066 127.095 118.368C124.467 121.556 121.594 124.409 118.528 126.923C115.371 129.507 112.016 131.73 108.521 133.59L108.516 133.59C104.937 135.494 101.197 137.023 97.3585 138.175C93.4939 139.336 89.5105 140.113 85.4762 140.502L85.471 140.502C84.5513 140.589 83.7561 141.045 83.21 141.706C82.6639 142.367 82.3723 143.234 82.4594 144.153L82.4592 144.159L82.4642 144.164C82.5514 145.084 83.0068 145.884 83.6628 146.425C84.3238 146.971 85.1905 147.263 86.1102 147.175L86.1207 147.171C90.5625 146.746 94.9707 145.877 99.2717 144.584C103.531 143.304 107.682 141.6 111.664 139.483C115.572 137.407 119.298 134.939 122.786 132.089C126.194 129.299 129.373 126.148 132.271 122.634C133.428 121.231 134.524 119.778 135.57 118.288C136.604 116.803 137.588 115.264 138.521 113.671C139.455 112.084 140.311 110.473 141.099 108.85C141.905 107.176 142.632 105.515 143.27 103.861C143.603 103.001 143.558 102.082 143.211 101.301C142.87 100.514 142.228 99.8594 141.368 99.5262L141.363 99.5208C140.503 99.1876 139.589 99.2333 138.803 99.5797C138.016 99.9261 137.366 100.568 137.028 101.428Z" fill="#6AFFE4"/>
<path d="M25.087 50.4261C25.5456 49.554 26.0573 48.647 26.6115 47.7153L26.6064 47.7099C27.1604 46.7834 27.7184 45.8986 28.2751 45.0555C28.8476 44.2077 29.4462 43.3606 30.0759 42.5145C30.6732 41.7091 31.3285 40.8794 32.0422 40.0149C34.67 36.8265 37.5431 33.9737 40.6093 31.4601C43.7661 28.8764 47.1206 26.6528 50.6206 24.7931C54.1948 22.8888 57.9297 21.3593 61.7731 20.2081C65.6377 19.0472 69.6263 18.2703 73.6606 17.8805L73.6658 17.8806C74.5909 17.7885 75.3859 17.3381 75.932 16.677L75.9268 16.6769C76.4729 16.0159 76.7646 15.1492 76.6775 14.2295L76.6828 14.2245L76.6776 14.2243L76.6778 14.2191C76.5907 13.2994 76.1351 12.5042 75.4792 11.9583C74.818 11.4174 73.9514 11.1257 73.0265 11.2127L73.0267 11.2075L73.0213 11.2125C68.5742 11.6421 64.1713 12.5056 59.8651 13.7992C55.6062 15.0786 51.4543 16.7833 47.4726 18.8994C43.5701 20.9763 39.8384 23.4439 36.3505 26.2939C32.9478 29.084 29.7688 32.2351 26.8707 35.7489C26.1679 36.5981 25.4633 37.5045 24.7521 38.4628C24.0572 39.3955 23.3877 40.3499 22.7331 41.3307C22.062 42.3372 21.4386 43.3189 20.868 44.2763C20.2975 45.2336 19.7359 46.2381 19.1782 47.2895L19.1727 47.2998C18.747 48.1156 18.6833 49.0255 18.9352 49.8355C19.1816 50.6557 19.7489 51.3762 20.5645 51.807L20.5694 51.8176L20.5747 51.8125C21.3851 52.2432 22.2951 52.3069 23.1103 52.0552C23.9201 51.8084 24.6348 51.2567 25.0704 50.4568L25.087 50.4261Z" fill="#6AFFE4"/>
<path d="M126.735 96.785C126.248 98.0836 125.709 99.3701 125.109 100.639L125.108 100.644C124.508 101.913 123.867 103.14 123.18 104.323L123.18 104.328C122.498 105.511 121.754 106.682 120.943 107.841L120.943 107.846C120.154 108.984 119.307 110.105 118.399 111.204C116.247 113.812 113.9 116.139 111.395 118.195C108.82 120.301 106.082 122.116 103.218 123.64L103.213 123.64C100.295 125.194 97.2459 126.442 94.1069 127.385C90.9417 128.332 87.6816 128.969 84.3894 129.288L84.3842 129.288C83.4645 129.375 82.6692 129.83 82.1233 130.486C81.5825 131.147 81.2908 132.014 81.3779 132.934L81.3725 132.939L81.3776 132.944C81.4699 133.864 81.9201 134.664 82.5813 135.205C83.2371 135.751 84.109 136.043 85.0287 135.956L85.0339 135.956C88.7442 135.598 92.4289 134.875 96.0202 133.794C99.5747 132.723 103.04 131.305 106.36 129.539C109.622 127.808 112.737 125.744 115.654 123.361C118.495 121.034 121.154 118.399 123.571 115.464C124.576 114.244 125.531 112.985 126.43 111.689C127.328 110.397 128.176 109.052 128.973 107.675C129.775 106.292 130.505 104.891 131.172 103.483C131.851 102.045 132.462 100.594 133.006 99.1404C133.329 98.2747 133.268 97.361 132.916 96.5741C132.559 95.7922 131.906 95.1474 131.046 94.8246C130.185 94.5018 129.266 94.5629 128.484 94.9147C127.703 95.2717 127.058 95.9193 126.735 96.7798L126.735 96.785Z" fill="#6AFFE4"/>
<path d="M35.3514 55.1468C35.7374 54.434 36.1387 53.7374 36.5604 53.0518L36.5606 53.0466C36.9934 52.3405 37.4198 51.6706 37.8452 51.0372C38.2758 50.404 38.7326 49.7663 39.2157 49.1191C39.6716 48.5126 40.1806 47.8713 40.7484 47.1797C42.8951 44.5709 45.2418 42.2442 47.7522 40.1934C50.3271 38.0768 53.0702 36.2622 55.9296 34.7377C58.847 33.1889 61.8961 31.941 65.0351 30.998C68.2055 30.0508 71.4604 29.4135 74.7526 29.0952C75.6775 29.0083 76.4728 28.5527 77.0187 27.8969C77.5595 27.2357 77.8514 26.3638 77.7643 25.4441L77.7696 25.4391L77.7644 25.4389C77.6775 24.514 77.2219 23.7188 76.5609 23.1727C75.8997 22.6319 75.0332 22.335 74.1133 22.4273L74.1083 22.4219C70.4084 22.7801 66.7288 23.5037 63.1218 24.589C59.5674 25.6602 56.1014 27.0832 52.7762 28.849C49.5094 30.5802 46.3994 32.6443 43.4884 35.0218C40.6467 37.3493 37.9887 39.9793 35.5717 42.9135C35.0309 43.5695 34.4781 44.2824 33.9029 45.0468C33.3654 45.7706 32.8324 46.5154 32.309 47.2918C31.78 48.0784 31.2829 48.8451 30.8334 49.5872C30.3514 50.37 29.9059 51.1539 29.4761 51.9331L29.4708 51.9381C29.035 52.7432 28.9608 53.658 29.202 54.4781C29.443 55.3034 29.9945 56.0285 30.7993 56.4695L30.8044 56.4748L30.8146 56.4804C31.6195 56.9213 32.5345 56.9904 33.3546 56.7492C34.1745 56.5132 34.9051 55.9567 35.346 55.1518L35.3514 55.1468Z" fill="#6AFFE4"/>
<path d="M116.421 92.1619C116.045 93.224 115.628 94.2797 115.154 95.3181C114.685 96.3462 114.17 97.3625 113.598 98.3667C113.043 99.3505 112.435 100.322 111.781 101.277C111.133 102.211 110.444 103.134 109.703 104.029C108.038 106.053 106.212 107.863 104.268 109.457C102.265 111.096 100.138 112.507 97.9195 113.686C95.6586 114.889 93.2899 115.861 90.8555 116.59C88.395 117.324 85.8739 117.817 83.3185 118.063L83.3081 118.063C82.3882 118.155 81.5931 118.606 81.0523 119.267C80.5114 119.928 80.2145 120.795 80.3018 121.709L80.3013 121.725L80.3065 121.725C80.3936 122.644 80.844 123.44 81.5051 123.986C82.161 124.526 83.0277 124.818 83.9526 124.731L83.9524 124.736L83.9576 124.736L83.9578 124.731C86.9312 124.445 89.8822 123.866 92.7634 123.004C95.6239 122.142 98.4092 121 101.073 119.585L101.078 119.58C103.694 118.189 106.197 116.534 108.526 114.623C110.812 112.758 112.944 110.649 114.88 108.295C115.74 107.258 116.548 106.182 117.3 105.085C118.063 103.977 118.769 102.841 119.429 101.683C120.089 100.515 120.693 99.3242 121.245 98.111C121.797 96.8874 122.298 95.6414 122.743 94.3833C123.045 93.5117 122.968 92.5975 122.595 91.8204C122.228 91.0487 121.569 90.4193 120.697 90.117L120.692 90.1117C119.821 89.8094 118.907 89.8863 118.13 90.2538C117.363 90.6269 116.728 91.2905 116.426 92.1568L116.421 92.1619Z" fill="#6AFFE4"/>
<path d="M153.654 57.7617C159.177 57.7617 163.654 53.2846 163.654 47.7617C163.654 42.2389 159.177 37.7617 153.654 37.7617C148.131 37.7617 143.654 42.2389 143.654 47.7617C143.654 53.2846 148.131 57.7617 153.654 57.7617Z" fill="#6AFFE4"/>
<path d="M188.654 47.7617C188.654 53.2846 184.177 57.7617 178.654 57.7617C173.131 57.7617 168.654 53.2846 168.654 47.7617C168.654 42.2389 173.131 37.7617 178.654 37.7617C184.177 37.7617 188.654 42.2389 188.654 47.7617Z" fill="#6AFFE4"/>
<path d="M203.654 57.7617C209.177 57.7617 213.654 53.2846 213.654 47.7617C213.654 42.2389 209.177 37.7617 203.654 37.7617C198.131 37.7617 193.654 42.2389 193.654 47.7617C193.654 53.2846 198.131 57.7617 203.654 57.7617Z" fill="#6AFFE4"/>
<path fill-rule="evenodd" clip-rule="evenodd" d="M139.837 10.7617H211.045C220.519 10.7617 228.227 18.4544 228.227 27.9128V68.0013C228.227 77.4596 220.519 85.1523 211.045 85.1523H177.93L154.654 101.262C152.613 102.621 150.597 103.246 150.597 100.762V85.1523H139.837C130.363 85.1523 122.654 77.4596 122.654 68.0013V27.9128C122.654 18.4544 130.363 10.7617 139.837 10.7617ZM211.045 78.9544C217.097 78.9544 222.014 74.043 222.014 68.0013V27.9128C222.014 21.8711 217.097 16.9596 211.045 16.9596H139.837C133.785 16.9596 128.863 21.8711 128.863 27.9128V68.0013C128.863 74.043 133.785 78.9544 139.837 78.9544H153.706C155.42 78.9544 156.811 80.3399 156.811 82.0534V91.7617L175.269 79.4753C175.779 79.1367 176.378 78.9544 176.993 78.9544H211.045Z" fill="#6AFFE4"/>
</svg>
