<svg width="382" height="306" viewBox="0 0 382 306" fill="none" xmlns="http://www.w3.org/2000/svg">
<path d="M140.353 79.2308C140.746 78.5395 141.123 77.9029 141.485 77.3279C141.833 76.7731 142.244 76.1513 142.72 75.4694C143.181 74.8009 143.613 74.2004 144.015 73.6679C144.417 73.1354 144.89 72.543 145.42 71.8903C147.63 69.2202 150.039 66.8248 152.612 64.7169C155.27 62.5495 158.083 60.6831 161.012 59.1235C164.011 57.5315 167.145 56.2536 170.366 55.2817C173.616 54.3106 176.958 53.6594 180.34 53.3332L180.354 53.3336C181.571 53.2115 182.623 52.6089 183.339 51.7412C184.061 50.8668 184.447 49.7204 184.332 48.5039L184.332 48.4901C184.21 47.2665 183.614 46.2148 182.74 45.4925C181.872 44.7773 180.718 44.3913 179.501 44.5065L179.494 44.5063C175.559 44.8848 171.654 45.6571 167.842 46.7974C164.057 47.9386 160.371 49.4411 156.847 51.3207L156.84 51.3205C153.379 53.1675 150.066 55.3497 146.984 57.8766C143.959 60.3432 141.145 63.14 138.576 66.2474C138.068 66.8595 137.531 67.5464 136.957 68.3012C136.389 69.0561 135.879 69.7646 135.432 70.4129C134.985 71.0612 134.508 71.7844 134.008 72.5896C133.509 73.3811 133.059 74.1258 132.666 74.8239L132.659 74.8306C132.055 75.8878 131.936 77.0904 132.234 78.1883C132.532 79.2793 133.241 80.2586 134.291 80.8621L134.305 80.8763C135.362 81.48 136.572 81.5989 137.664 81.3007C138.755 81.0025 139.742 80.2946 140.345 79.2374L140.353 79.2308Z" fill="#6AFFE4"/>
<path d="M179.133 93.1835C177.654 93.9663 176.298 95.0492 175.175 96.4147L175.168 96.4145C174.038 97.7799 173.233 99.3135 172.744 100.919C172.239 102.585 172.07 104.317 172.233 106.011C172.403 107.711 172.89 109.38 173.706 110.914C174.489 112.392 175.573 113.74 176.939 114.87C178.305 115.993 179.839 116.797 181.445 117.286C183.112 117.798 184.844 117.96 186.539 117.797C188.24 117.628 189.916 117.14 191.444 116.324C192.922 115.542 194.278 114.459 195.402 113.093C196.525 111.728 197.329 110.194 197.819 108.596C198.323 106.943 198.492 105.204 198.33 103.504L198.33 103.497C198.213 102.322 197.945 101.163 197.516 100.054C197.254 99.3706 196.929 98.7061 196.555 98.0608L212.016 79.3143C214.691 82.1168 216.845 85.2484 218.468 88.5846C220.411 92.5714 221.599 96.8596 222.027 101.222C222.483 106.012 222.013 110.891 220.584 115.563C219.215 120.05 216.949 124.359 213.758 128.227C210.574 132.095 206.773 135.138 202.625 137.343C198.31 139.633 193.607 141.023 188.815 141.486C184.023 141.949 179.141 141.479 174.475 140.05C169.979 138.675 165.669 136.41 161.806 133.227C157.937 130.044 154.893 126.245 152.687 122.098C150.389 117.784 148.999 113.083 148.535 108.293C148.079 103.503 148.549 98.6231 149.971 93.9582C151.347 89.4641 153.613 85.1553 156.798 81.2874C158.379 79.3773 160.098 77.6643 161.943 76.1549C163.837 74.6056 165.843 73.2665 167.937 72.1575C170.068 71.0219 172.308 70.1102 174.611 69.421C176.914 68.7317 179.307 68.2657 181.741 68.0353L181.741 68.0284C182.958 67.9132 184.017 67.3108 184.739 66.4433C185.455 65.5687 185.841 64.4223 185.726 63.1989L185.733 63.1922L185.726 63.192C185.611 61.9686 185.008 60.9167 184.133 60.1944C183.259 59.479 182.112 59.0932 180.895 59.2084L180.888 59.2013C177.929 59.4849 174.981 60.0722 172.079 60.9434C169.213 61.8019 166.428 62.9454 163.765 64.3614L163.758 64.368C161.137 65.7646 158.633 67.4128 156.301 69.3211C154.018 71.1896 151.886 73.2969 149.947 75.6443C146.012 80.4202 143.204 85.7674 141.5 91.3544C139.719 97.1596 139.131 103.214 139.705 109.138C140.279 115.069 142.008 120.897 144.86 126.262C147.602 131.416 151.384 136.127 156.161 140.067C160.939 144.001 166.281 146.808 171.87 148.519C177.678 150.299 183.735 150.88 189.667 150.313C195.601 149.739 201.423 148.011 206.79 145.16C211.947 142.419 216.666 138.639 220.601 133.863C224.537 129.087 227.351 123.747 229.056 118.16C230.836 112.354 231.424 106.3 230.851 100.369C230.318 94.8943 228.81 89.5213 226.354 84.5197C224.189 80.1403 221.299 76.0424 217.69 72.4331L249.402 33.977L249.211 33.643L255.246 26.101C254.269 25.2346 253.273 24.3826 252.257 23.5457C251.315 22.7663 250.146 22.4418 249.012 22.5526C247.878 22.6565 246.793 23.1961 246.013 24.1446L189.712 92.4179C189.009 92.1625 188.298 91.9758 187.571 91.8507C186.405 91.6435 185.213 91.601 184.038 91.7105L184.031 91.7103C182.337 91.8733 180.667 92.3678 179.133 93.1835Z" fill="#6AFFE4"/>
<path d="M286.901 132.375C286.61 133.446 286.302 134.514 285.976 135.578C282.055 148.418 275.592 160.707 266.526 171.705C257.461 182.695 246.624 191.38 234.763 197.676C222.438 204.227 209.033 208.203 195.376 209.51C181.726 210.832 167.804 209.485 154.453 205.405C141.608 201.478 129.308 195.024 118.319 185.962C107.318 176.9 98.6371 166.067 92.3316 154.21C85.778 141.89 81.8011 128.483 80.486 114.838C79.1711 101.186 80.5186 87.2689 84.6 73.9302C88.5218 61.0829 94.9849 48.7942 104.05 37.8032C108.515 32.3884 113.418 27.5313 118.669 23.2359C124.048 18.841 129.795 15.036 135.814 11.8388C139.044 10.1159 142.337 8.58782 145.673 7.23335C148.954 5.90478 152.284 4.75002 155.658 3.75508C155.658 3.75508 164.087 1.766 165.553 1.39965C167.419 0.933321 168.416 0.793149 168.861 0.73827L172.831 0.346275L176.598 0.0807876C195.011 -0.726051 229.86 4.50041 243.058 16.2195C243.978 17.0328 244.476 18.1436 244.539 19.2689C244.608 20.4014 244.243 21.5553 243.429 22.4752C242.615 23.3951 241.504 23.8926 240.378 23.9554C239.246 24.0248 238.091 23.6595 237.178 22.8464L237.171 22.8462C225.357 12.354 192.335 8.02996 175.738 9.0014C175.026 9.04903 174.342 9.09748 173.685 9.14676C173.001 9.2021 172.323 9.27142 171.659 9.34116C166.141 10.1272 160.69 11.3839 155.364 13.1131C150.086 14.8299 144.933 17.0053 139.972 19.6414C134.493 22.5515 129.238 26.0403 124.297 30.083C119.498 34.0128 115 38.4686 110.886 43.4528C102.572 53.5357 96.6571 64.7932 93.0578 76.5405C89.328 88.7318 88.1052 101.474 89.3093 113.992C90.5132 126.517 94.1516 138.791 100.137 150.046C105.908 160.895 113.864 170.817 123.951 179.121C134.03 187.432 145.292 193.351 157.044 196.942C169.247 200.671 181.993 201.893 194.516 200.69C207.039 199.486 219.317 195.849 230.584 189.866C241.43 184.097 251.356 176.144 259.669 166.061C267.983 155.978 273.898 144.728 277.498 132.98C278.194 130.702 278.803 128.405 279.326 126.094L279.484 127.501L286.901 132.375Z" fill="#6AFFE4"/>
<path d="M261.321 134.164C260.521 136.229 259.655 138.229 258.728 140.159C257.788 142.095 256.772 144.002 255.682 145.871C254.614 147.687 253.442 149.512 252.168 151.328C250.929 153.097 249.601 154.849 248.177 156.571C244.7 160.789 240.898 164.562 236.841 167.887C232.663 171.305 228.225 174.246 223.6 176.706L223.593 176.706C218.857 179.224 213.908 181.247 208.829 182.77C203.715 184.306 198.444 185.334 193.106 185.849L193.099 185.849C191.882 185.965 190.83 186.567 190.107 187.442C189.384 188.316 188.998 189.462 189.114 190.679L189.114 190.686L189.12 190.693C189.235 191.909 189.838 192.968 190.706 193.683C191.581 194.406 192.728 194.791 193.945 194.676L193.959 194.67C199.836 194.108 205.669 192.959 211.361 191.248C216.996 189.556 222.49 187.301 227.759 184.502C232.93 181.755 237.861 178.49 242.476 174.721C246.986 171.03 251.192 166.862 255.027 162.214C256.558 160.358 258.009 158.437 259.391 156.466C260.76 154.501 262.062 152.465 263.298 150.359C264.533 148.259 265.665 146.129 266.708 143.982C267.775 141.767 268.737 139.569 269.581 137.382C270.022 136.244 269.962 135.03 269.503 133.996C269.052 132.955 268.202 132.089 267.064 131.648L267.057 131.641C265.919 131.2 264.711 131.261 263.67 131.719C262.628 132.177 261.769 133.027 261.321 134.164Z" fill="#6AFFE4"/>
<path d="M113.196 66.7011C113.803 65.5475 114.48 64.3478 115.213 63.1153L115.207 63.1083C115.94 61.8827 116.678 60.7124 117.415 59.5972C118.172 58.4757 118.964 57.3553 119.798 56.2361C120.588 55.1707 121.455 54.0732 122.4 52.9297C125.877 48.7122 129.679 44.9387 133.736 41.6139C137.913 38.1962 142.352 35.255 146.983 32.7951C151.713 30.2762 156.655 28.253 161.741 26.7303C166.855 25.1947 172.133 24.1671 177.471 23.6514L177.478 23.6516C178.702 23.5297 179.754 22.934 180.476 22.0596L180.47 22.0594C181.192 21.185 181.578 20.0386 181.463 18.8221L181.47 18.8154L181.463 18.8152L181.463 18.8083C181.348 17.5918 180.745 16.5399 179.877 15.8178C179.002 15.1024 177.856 14.7165 176.632 14.8316L176.632 14.8247L176.625 14.8313C170.74 15.3996 164.914 16.5418 159.216 18.2529C153.58 19.9452 148.087 22.2001 142.818 24.9992C137.654 27.7464 132.716 31.0104 128.101 34.7803C123.598 38.4709 119.391 42.639 115.556 47.2869C114.626 48.4101 113.694 49.609 112.753 50.8766C111.833 52.1104 110.948 53.3728 110.081 54.6702C109.193 56.0015 108.368 57.3001 107.613 58.5664C106.858 59.8327 106.115 61.1614 105.377 62.5522L105.37 62.5658C104.807 63.6448 104.723 64.8485 105.056 65.9199C105.382 67.0049 106.133 67.9578 107.212 68.5277L107.218 68.5417L107.225 68.535C108.298 69.1047 109.502 69.189 110.58 68.8559C111.652 68.5296 112.598 67.7997 113.174 66.7418L113.196 66.7011Z" fill="#6AFFE4"/>
<path d="M247.701 128.022C247.057 129.74 246.344 131.442 245.549 133.12L245.549 133.127C244.754 134.806 243.905 136.428 242.997 137.993L242.996 138C242.095 139.565 241.111 141.114 240.037 142.646L240.037 142.653C238.992 144.159 237.872 145.642 236.67 147.094C233.823 150.545 230.718 153.623 227.402 156.342C223.996 159.128 220.373 161.529 216.582 163.545L216.575 163.545C212.715 165.601 208.68 167.251 204.526 168.498C200.338 169.752 196.024 170.594 191.668 171.015L191.661 171.015C190.444 171.13 189.391 171.733 188.669 172.6C187.953 173.475 187.567 174.621 187.683 175.838L187.676 175.845L187.682 175.852C187.804 177.068 188.4 178.127 189.275 178.842C190.143 179.565 191.297 179.951 192.514 179.835L192.52 179.836C197.43 179.362 202.306 178.405 207.058 176.976C211.761 175.559 216.348 173.684 220.741 171.348C225.057 169.058 229.179 166.328 233.038 163.176C236.798 160.097 240.316 156.612 243.514 152.73C244.845 151.116 246.108 149.451 247.297 147.736C248.486 146.028 249.608 144.249 250.662 142.427C251.724 140.597 252.689 138.745 253.572 136.882C254.471 134.979 255.28 133.06 255.999 131.138C256.426 129.993 256.345 128.784 255.88 127.743C255.408 126.709 254.544 125.856 253.405 125.429C252.266 125.002 251.05 125.083 250.016 125.548C248.981 126.021 248.128 126.877 247.701 128.016L247.701 128.022Z" fill="#6AFFE4"/>
<path d="M126.778 72.9454C127.289 72.0026 127.82 71.0811 128.378 70.1742L128.379 70.1673C128.951 69.2333 129.516 68.3473 130.078 67.5095C130.648 66.6719 131.253 65.8284 131.892 64.9722C132.495 64.1701 133.169 63.3218 133.92 62.4069C136.761 58.9561 139.866 55.8785 143.188 53.1658C146.595 50.366 150.225 47.9658 154.008 45.9493C157.869 43.9006 161.904 42.25 166.057 41.0027C170.252 39.7497 174.559 38.9068 178.916 38.4857C180.14 38.3707 181.192 37.7681 181.914 36.9006C182.63 36.026 183.016 34.8727 182.901 33.6562L182.908 33.6495L182.901 33.6493C182.786 32.4259 182.183 31.374 181.309 30.6517C180.434 29.9363 179.287 29.5436 178.07 29.6657L178.063 29.6586C173.167 30.1324 168.298 31.0895 163.526 32.5251C158.822 33.942 154.236 35.8242 149.836 38.1601C145.513 40.4499 141.398 43.1803 137.546 46.3251C133.785 49.4038 130.268 52.8826 127.07 56.7638C126.354 57.6315 125.623 58.5746 124.862 59.5857C124.151 60.5431 123.445 61.5283 122.753 62.5552C122.053 63.5957 121.395 64.6099 120.8 65.5915C120.162 66.6269 119.573 67.6638 119.004 68.6944L118.997 68.7011C118.42 69.766 118.322 70.9761 118.641 72.0609C118.96 73.1525 119.69 74.1117 120.755 74.695L120.762 74.7021L120.775 74.7094C121.84 75.2926 123.051 75.384 124.136 75.065C125.221 74.7528 126.188 74.0167 126.771 72.952L126.778 72.9454Z" fill="#6AFFE4"/>
<path d="M234.053 121.907C233.556 123.312 233.004 124.708 232.377 126.082C231.757 127.442 231.075 128.786 230.318 130.114C229.583 131.416 228.779 132.701 227.914 133.964C227.056 135.2 226.144 136.42 225.164 137.604C222.96 140.281 220.544 142.676 217.971 144.784C215.321 146.952 212.507 148.818 209.571 150.378C206.579 151.97 203.445 153.255 200.224 154.22C196.968 155.191 193.632 155.842 190.251 156.168L190.237 156.168C189.02 156.29 187.968 156.886 187.252 157.76C186.536 158.635 186.143 159.781 186.259 160.991L186.258 161.011L186.265 161.011C186.38 162.228 186.976 163.28 187.851 164.002C188.719 164.717 189.866 165.103 191.09 164.988L191.089 164.995L191.096 164.995L191.097 164.988C195.031 164.61 198.936 163.844 202.749 162.704C206.534 161.563 210.219 160.053 213.744 158.181L213.751 158.174C217.212 156.334 220.525 154.145 223.607 151.618C226.632 149.151 229.453 146.362 232.014 143.247C233.152 141.875 234.222 140.453 235.217 139.001C236.226 137.535 237.16 136.033 238.033 134.501C238.907 132.956 239.706 131.381 240.436 129.776C241.168 128.158 241.831 126.51 242.418 124.845C242.818 123.693 242.716 122.483 242.223 121.455C241.737 120.435 240.865 119.602 239.712 119.202L239.705 119.195C238.552 118.795 237.342 118.897 236.314 119.383C235.3 119.877 234.46 120.754 234.06 121.9L234.053 121.907Z" fill="#6AFFE4"/>
<path d="M283.322 76.4043C290.63 76.4043 296.554 70.4821 296.554 63.1768C296.554 55.8714 290.63 49.9493 283.322 49.9493C276.014 49.9493 270.089 55.8714 270.089 63.1768C270.089 70.4821 276.014 76.4043 283.322 76.4043Z" fill="#6AFFE4"/>
<path d="M329.635 63.1768C329.635 70.4821 323.711 76.4043 316.403 76.4043C309.095 76.4043 303.171 70.4821 303.171 63.1768C303.171 55.8714 309.095 49.9493 316.403 49.9493C323.711 49.9493 329.635 55.8714 329.635 63.1768Z" fill="#6AFFE4"/>
<path d="M349.484 76.4043C356.792 76.4043 362.716 70.4821 362.716 63.1768C362.716 55.8714 356.792 49.9493 349.484 49.9493C342.176 49.9493 336.252 55.8714 336.252 63.1768C336.252 70.4821 342.176 76.4043 349.484 76.4043Z" fill="#6AFFE4"/>
<path fill-rule="evenodd" clip-rule="evenodd" d="M265.038 14.2351H359.264C371.8 14.2351 382 24.4106 382 36.9216V89.9487C382 102.46 371.8 112.635 359.264 112.635H315.445L284.645 133.944C281.944 135.742 279.276 136.569 279.276 133.283V112.635H265.038C252.501 112.635 242.301 102.46 242.301 89.9487V36.9216C242.301 24.4106 252.501 14.2351 265.038 14.2351ZM359.264 104.437C367.272 104.437 373.778 97.9403 373.778 89.9487V36.9216C373.778 28.93 367.272 22.4334 359.264 22.4334H265.038C257.029 22.4334 250.517 28.93 250.517 36.9216V89.9487C250.517 97.9403 257.029 104.437 265.038 104.437H283.391C285.658 104.437 287.498 106.27 287.498 108.536V121.378L311.923 105.126C312.599 104.678 313.391 104.437 314.204 104.437H359.264Z" fill="#6AFFE4"/>
<path fill-rule="evenodd" clip-rule="evenodd" d="M156.123 292.406H145.116V242H156.123V255.245L155.866 259.539C157.062 257.842 158.624 256.524 160.547 255.579C162.463 254.64 164.7 254.164 167.259 254.164C170.615 254.164 173.393 254.904 175.592 256.376C177.784 257.836 179.411 259.938 180.478 262.677C181.539 265.422 182.072 268.708 182.072 272.527V292.406H171.04V272.758C171.04 270.72 170.744 269.074 170.165 267.82C169.58 266.573 168.776 265.66 167.748 265.094C166.719 264.529 165.517 264.246 164.147 264.246C162.759 264.246 161.447 264.657 160.213 265.48C158.991 266.29 158.007 267.428 157.255 268.901C156.496 270.36 156.123 272.064 156.123 274.018V292.406ZM106.637 292.226C109.241 293.082 111.993 293.512 114.892 293.512C116.963 293.512 119.046 293.262 121.142 292.767C123.251 292.271 125.282 291.506 127.237 290.478C129.191 289.436 130.966 288.105 132.56 286.491C134.168 284.884 135.531 282.981 136.649 280.782C137.781 278.59 138.553 276.069 138.964 273.221H127.365C126.812 275.587 125.906 277.503 124.639 278.956C123.386 280.416 121.894 281.477 120.164 282.145C118.429 282.814 116.564 283.148 114.558 283.148C112.604 283.148 110.752 282.814 109.003 282.145C107.267 281.477 105.743 280.499 104.425 279.213C103.12 277.928 102.091 276.352 101.339 274.481C100.581 272.598 100.208 270.457 100.208 268.052C100.208 265.686 100.581 263.577 101.339 261.725C102.091 259.861 103.12 258.273 104.425 256.968C105.743 255.65 107.267 254.647 109.003 253.959C110.752 253.258 112.604 252.904 114.558 252.904C116.577 252.904 118.454 253.239 120.19 253.907C121.92 254.576 123.411 255.643 124.665 257.096C125.912 258.556 126.832 260.478 127.417 262.857H138.964C138.553 260.015 137.781 257.495 136.649 255.296C135.531 253.084 134.161 251.175 132.535 249.561C130.902 247.954 129.114 246.629 127.16 245.601C125.218 244.559 123.199 243.788 121.09 243.286C118.994 242.791 116.931 242.54 114.892 242.54C111.993 242.54 109.241 242.971 106.637 243.826C104.046 244.668 101.661 245.871 99.4876 247.427C97.3273 248.989 95.4499 250.821 93.8555 252.93C92.2738 255.039 91.0522 257.373 90.1778 259.925C89.3035 262.484 88.8663 265.172 88.8663 268.001C88.8663 270.817 89.3035 273.498 90.1778 276.05C91.0522 278.609 92.2738 280.956 93.8555 283.097C95.4499 285.225 97.3273 287.07 99.4876 288.626C101.661 290.169 104.046 291.371 106.637 292.226ZM11.0071 292.406H0V255.347H10.5185V259.822C11.2193 258.69 12.1515 257.707 13.3217 256.865C14.5047 256.029 15.842 255.366 17.3336 254.884C18.8381 254.408 20.4454 254.164 22.1428 254.164C25.4989 254.164 28.2764 254.904 30.4753 256.376C32.6677 257.835 34.2943 259.938 35.3616 262.677C36.4224 265.422 36.9561 268.707 36.9561 272.526V292.406H25.9233V272.758C25.9233 270.72 25.6275 269.074 25.0489 267.82C24.4638 266.573 23.6601 265.66 22.6314 265.094C21.6027 264.528 20.4004 264.245 19.031 264.245C17.6422 264.245 16.3306 264.599 15.0962 265.3C13.8746 266.007 12.8909 267.087 12.1387 268.54C11.38 269.98 11.0071 271.806 11.0071 274.018V292.406ZM56.3615 305.059H45.3544V255.347H55.8214V260.028C57.1716 258.093 58.8433 256.633 60.8364 255.656C62.8423 254.679 64.9126 254.19 67.06 254.19C69.696 254.19 72.1135 254.704 74.3123 255.733C76.5048 256.762 78.3886 258.189 79.9702 260.002C81.5454 261.802 82.7606 263.898 83.6221 266.277C84.4772 268.643 84.908 271.176 84.908 273.864C84.908 276.59 84.4772 279.149 83.6221 281.528C82.7606 283.913 81.539 286.016 79.9445 287.829C78.3629 289.648 76.4983 291.069 74.3381 292.098C72.1778 293.107 69.8118 293.615 67.24 293.615C64.8547 293.615 62.7009 293.088 60.7849 292.046C58.8625 291.005 57.3195 289.655 56.1558 288.009L56.3615 292.483V305.059ZM65.1569 283.508C66.7321 283.508 68.1916 283.142 69.5289 282.402C70.8791 281.65 71.9721 280.563 72.795 279.136C73.618 277.696 74.0294 275.941 74.0294 273.864C74.0294 271.877 73.6244 270.174 72.8207 268.746C72.0106 267.306 70.9305 266.213 69.5803 265.454C68.2237 264.683 66.7257 264.297 65.0798 264.297C63.466 264.297 61.9808 264.721 60.6306 265.557C59.2933 266.399 58.226 267.55 57.4417 269.003C56.6508 270.463 56.2586 272.083 56.2586 273.864C56.2586 275.786 56.6701 277.464 57.4931 278.905C58.316 280.345 59.4026 281.476 60.7592 282.299C62.1094 283.109 63.5753 283.508 65.1569 283.508ZM198.522 292.098C200.612 293.107 202.901 293.615 205.389 293.615C208.076 293.615 210.468 293.107 212.564 292.098C214.673 291.069 216.28 289.616 217.399 287.726V292.406H227.892V255.347H217.425V260.105C216.306 258.202 214.699 256.736 212.59 255.707C210.481 254.679 208.051 254.164 205.312 254.164C202.875 254.164 200.618 254.679 198.548 255.707C196.471 256.736 194.671 258.163 193.147 259.976C191.617 261.777 190.428 263.873 189.572 266.251C188.73 268.637 188.312 271.176 188.312 273.864C188.312 276.59 188.724 279.149 189.547 281.528C190.383 283.913 191.566 286.015 193.096 287.828C194.639 289.648 196.445 291.069 198.522 292.098ZM212.615 282.196C211.278 283.039 209.761 283.456 208.063 283.456C206.52 283.456 205.067 283.096 203.717 282.376C202.361 281.643 201.274 280.57 200.451 279.162C199.628 277.741 199.217 275.973 199.217 273.864C199.217 271.877 199.615 270.173 200.425 268.746C201.229 267.306 202.303 266.213 203.64 265.454C204.99 264.683 206.475 264.297 208.089 264.297C209.735 264.297 211.233 264.728 212.59 265.583C213.94 266.444 215.007 267.589 215.779 269.029C216.563 270.469 216.962 272.083 216.962 273.864C216.962 275.683 216.563 277.31 215.779 278.75C215.007 280.19 213.953 281.341 212.615 282.196ZM260.704 292.406H252.526C251.427 292.406 250.289 292.316 249.106 292.123C247.923 291.937 246.765 291.57 245.634 291.017C244.515 290.471 243.512 289.667 242.625 288.6C241.731 287.539 241.017 286.144 240.49 284.408C239.957 282.678 239.693 280.525 239.693 277.953V264.708H232.569V255.347H239.693V244.649L250.7 244.571V255.347H260.704V264.708H250.7V278.441C250.7 280.261 251.099 281.528 251.909 282.248C252.732 282.968 253.722 283.328 254.892 283.328H260.704V292.406ZM282.144 292.021C284.15 293.081 286.342 293.615 288.728 293.615C291.299 293.615 293.665 293.107 295.826 292.098C297.986 291.069 299.85 289.648 301.432 287.829C303.027 286.016 304.248 283.913 305.11 281.528C305.965 279.149 306.396 276.59 306.396 273.864C306.396 271.177 305.965 268.643 305.11 266.277C304.248 263.898 303.033 261.802 301.458 260.002C299.876 258.189 297.992 256.762 295.8 255.733C293.601 254.704 291.184 254.19 288.548 254.19C286.4 254.19 284.343 254.672 282.375 255.63C280.402 256.595 278.807 257.971 277.592 259.771L277.849 255.09V242H266.842V292.406H277.361V287.726C278.544 289.513 280.138 290.94 282.144 292.021ZM291.017 282.402C289.679 283.142 288.22 283.508 286.645 283.508C285.063 283.508 283.597 283.109 282.247 282.299C280.89 281.476 279.804 280.345 278.981 278.905C278.158 277.464 277.746 275.786 277.746 273.864C277.746 272.083 278.138 270.463 278.929 269.003C279.714 267.55 280.781 266.4 282.118 265.557C283.468 264.721 284.954 264.297 286.567 264.297C288.213 264.297 289.711 264.683 291.068 265.454C292.418 266.213 293.498 267.306 294.308 268.746C295.112 270.174 295.517 271.877 295.517 273.864C295.517 275.941 295.106 277.696 294.283 279.136C293.46 280.563 292.367 281.65 291.017 282.402ZM331.428 293.589C328.548 293.589 325.899 293.075 323.482 292.046C321.077 291.017 318.994 289.603 317.232 287.803C315.483 286.002 314.127 283.913 313.169 281.528C312.224 279.149 311.754 276.59 311.754 273.864C311.754 271.176 312.224 268.637 313.169 266.251C314.127 263.873 315.483 261.777 317.232 259.976C318.994 258.163 321.077 256.736 323.482 255.707C325.899 254.679 328.561 254.164 331.48 254.164C334.412 254.164 337.086 254.679 339.504 255.707C341.934 256.736 344.03 258.163 345.779 259.976C347.54 261.777 348.903 263.873 349.868 266.251C350.845 268.617 351.334 271.157 351.334 273.864C351.334 276.59 350.845 279.149 349.868 281.528C348.903 283.913 347.54 286.015 345.779 287.828C344.011 289.648 341.908 291.062 339.478 292.072C337.041 293.081 334.36 293.589 331.428 293.589ZM331.531 283.431C333.28 283.431 334.81 283.032 336.135 282.222C337.453 281.399 338.488 280.28 339.246 278.853C340.018 277.413 340.404 275.754 340.404 273.864C340.404 271.999 340.018 270.353 339.246 268.926C338.488 267.486 337.453 266.367 336.135 265.557C334.81 264.734 333.28 264.323 331.531 264.323C329.815 264.323 328.291 264.734 326.953 265.557C325.616 266.367 324.562 267.486 323.79 268.926C323.032 270.353 322.659 271.999 322.659 273.864C322.659 275.754 323.032 277.413 323.79 278.853C324.562 280.28 325.616 281.399 326.953 282.222C328.291 283.032 329.815 283.431 331.531 283.431ZM373.822 292.406H382V283.328H376.188C375.018 283.328 374.028 282.968 373.205 282.248C372.395 281.528 371.996 280.261 371.996 278.441V264.708H382V255.347H371.996V244.571L360.989 244.649V255.347H353.865V264.708H360.989V277.953C360.989 280.525 361.253 282.678 361.786 284.408C362.313 286.144 363.027 287.539 363.921 288.6C364.808 289.667 365.811 290.471 366.93 291.017C368.061 291.57 369.219 291.937 370.402 292.123C371.585 292.316 372.723 292.406 373.822 292.406Z" fill="#6AFFE4"/>
</svg>
